<svg width="123" height="124" viewBox="0 0 123 124" fill="none" xmlns="http://www.w3.org/2000/svg">
<path d="M80.71 81.1338C80.7111 82.023 81.4321 82.7429 82.3213 82.7451H96.6516C100.279 82.6971 103.731 84.305 106.029 87.1121C107.966 89.5223 108.949 91.9118 108.949 94.2178C108.949 95.1082 109.672 95.8303 110.561 95.8303C111.451 95.8303 112.172 95.1082 112.172 94.2178C112.172 91.1589 110.95 88.0895 108.543 85.0933V85.0944C105.635 81.5229 101.257 79.4709 96.6515 79.5213H82.3212C81.8932 79.5213 81.4835 79.6918 81.1814 79.9939C80.8793 80.2961 80.71 80.7058 80.71 81.1338Z" fill="#E15F41"/>
<path d="M23.1943 95.1787C20.8792 95.1787 18.6592 96.0977 17.0215 97.7342C15.385 99.3696 14.4649 101.59 14.4649 103.905C14.4649 106.219 15.3838 108.439 17.0203 110.075C18.6569 111.711 20.877 112.632 23.192 112.632C25.506 112.631 27.7263 111.712 29.3625 110.074C30.999 108.438 31.918 106.217 31.9169 103.902C31.9134 101.59 30.9945 99.3728 29.3591 97.7375C27.7237 96.1021 25.5061 95.1822 23.1943 95.1787ZM23.1943 109.406C21.7341 109.407 20.3333 108.827 19.3011 107.796C18.2688 106.763 17.6886 105.364 17.6875 103.905C17.6875 102.445 18.2665 101.045 19.2988 100.012C20.3299 98.9793 21.7307 98.399 23.1897 98.399C24.65 98.399 26.0496 98.9781 27.0818 100.01C28.114 101.043 28.6943 102.442 28.6943 103.902C28.6931 105.362 28.1129 106.76 27.0818 107.791C26.0507 108.822 24.6524 109.404 23.1943 109.406Z" fill="#E15F41"/>
<path d="M120.507 31.2588H90.1025C89.5017 28.0889 87.3846 25.4156 84.4377 24.1039C87.6225 21.7613 89.5796 18.106 89.7639 14.1568C89.947 10.2075 88.3379 6.38635 85.3843 3.75872C82.4306 1.13114 78.4479 -0.0223358 74.5468 0.619559C70.6456 1.26157 67.2431 3.63157 65.2875 7.06838C63.3328 10.504 63.033 14.6399 64.4738 18.3213C65.9135 22.0028 68.9393 24.8375 72.7077 26.0358L47.6612 39.3717C45.9229 40.2918 44.6252 41.8677 44.0551 43.7501C44.0002 43.9344 43.9509 44.1186 43.9109 44.304H40.6882C37.7643 44.32 34.973 45.5285 32.9588 47.648C32.4976 45.7116 31.3967 43.987 29.8346 42.7522C28.2736 41.5174 26.3418 40.8444 24.3505 40.841H20.7215C19.8358 40.8479 19.1217 41.5677 19.1217 42.4523V56.9279C19.1217 57.8171 19.8426 58.5392 20.733 58.5392H24.3538C26.4057 58.5415 28.3947 57.8286 29.9773 56.5205V69.8655L25.4662 75.9194C5.86248 76.3372 1.00565 91.7579 0.961995 91.9161C0.814365 92.4025 0.903627 92.9301 1.20461 93.3398C1.50557 93.7495 1.98165 93.9932 2.48977 93.9978H6.21487C3.18674 99.1968 2.70715 105.497 4.91254 111.094C7.11666 116.691 11.7642 120.971 17.524 122.71C23.2837 124.447 29.5219 123.452 34.4555 120.008C39.3891 116.564 42.4732 111.05 42.8268 105.045H75.1149C75.5074 111.785 79.331 117.853 85.2416 121.115C91.1537 124.377 98.3256 124.377 104.238 121.115C110.149 117.853 113.972 111.785 114.364 105.045H118.204C119.042 105.045 119.74 104.403 119.809 103.568C119.899 102.517 121.605 80.1949 108.37 69.7978H120.508C121.398 69.7978 122.119 69.0768 122.119 68.1864V32.8808C122.121 32.4516 121.953 32.0396 121.651 31.7352C121.348 31.4308 120.937 31.2591 120.508 31.258L120.507 31.2588ZM66.7969 13.5433C66.7969 10.9226 67.8383 8.40842 69.6922 6.55452C71.545 4.70058 74.0604 3.65917 76.681 3.65917C79.3028 3.65917 81.817 4.70058 83.6709 6.55452C85.5248 8.40845 86.5663 10.9227 86.5663 13.5433C86.5663 16.1651 85.5249 18.6793 83.6709 20.5332C81.817 22.3871 79.3028 23.4286 76.681 23.4286C74.0603 23.4263 71.5482 22.3837 69.6954 20.5298C67.8415 18.677 66.7991 16.1654 66.7969 13.5433ZM47.1246 44.7005C47.4473 43.6362 48.182 42.7447 49.1651 42.224L77.7594 27.0022L77.7937 27.0652L77.7949 27.0663C79.8274 26.1565 82.1835 26.3385 84.0524 27.5515C85.9212 28.7635 87.0486 30.8407 87.0451 33.0687V66.5668H61.0453C60.1549 66.5668 59.4339 67.2889 59.4339 68.1781V90.7654H52.7425V64.373C52.7448 63.1107 53.2472 61.9011 54.1399 61.0086C55.0325 60.1159 56.2433 59.6147 57.5055 59.6135H72.2855C73.1758 59.6135 73.8968 58.8926 73.8968 58.0022V42.1957L83.2111 37.2369V37.238C83.5934 37.0389 83.8795 36.6967 84.0077 36.2859C84.1359 35.8751 84.0935 35.4299 83.8921 35.0499C83.6895 34.67 83.3439 34.3873 82.9319 34.2637C82.52 34.1401 82.0759 34.1859 81.6983 34.3919L53.1007 49.6022C52.4976 49.9272 51.8224 50.0966 51.1369 50.0943C49.8128 50.0943 48.5666 49.4672 47.7769 48.4052C46.9861 47.3432 46.7447 45.9698 47.1246 44.7005ZM70.6274 69.7813V90.7573H62.6508V69.7813H70.6274ZM42.3182 47.5168H43.8952C44.3975 49.7782 45.9288 51.6743 48.0333 52.6426C50.1368 53.6108 52.5732 53.5387 54.6172 52.4503L70.6745 43.9027V56.3826H57.5059C55.3887 56.3849 53.3598 57.226 51.8627 58.7229C50.3658 60.2186 49.5235 62.2476 49.5201 64.3649V89.9929L44.3565 80.5951C43.0233 78.1643 42.3218 75.4374 42.3184 72.6644L42.3182 47.5168ZM24.3407 55.2998H22.3231V44.0572H24.3407L24.3419 44.0583C26.2896 44.1464 28.0532 45.2359 29.0018 46.9399C29.9517 48.6428 29.9517 50.7166 29.0018 52.4193C28.0531 54.1222 26.2896 55.2128 24.3419 55.3009L24.3407 55.2998ZM25.3467 79.1323L32.0345 90.7502H4.93611C6.8942 87.0228 12.4261 79.4938 25.3478 79.1472L25.3467 79.1323ZM23.1906 120.321L23.1917 120.322C19.0969 120.321 15.1524 118.791 12.1263 116.033C9.10169 113.276 7.21438 109.488 6.83558 105.411C6.45563 101.335 7.61262 97.2641 10.0764 93.9957H33.888L39.6249 103.965H39.6261C39.6032 108.311 37.8625 112.472 34.7842 115.539C31.7045 118.606 27.5367 120.331 23.1914 120.337L23.1906 120.321ZM94.7306 120.321V120.322C90.5696 120.317 86.5653 118.736 83.5234 115.897C80.4815 113.057 78.6276 109.171 78.3358 105.02H86.0822C86.4541 107.841 88.1787 110.304 90.7032 111.617C93.2277 112.93 96.2341 112.93 98.7575 111.617C101.282 110.304 103.007 107.841 103.378 105.02H111.123C110.834 109.173 108.983 113.062 105.941 115.904C102.899 118.746 98.8934 120.33 94.73 120.337L94.7306 120.321ZM89.3485 105.019L100.128 105.02C99.7775 106.68 98.6823 108.084 97.159 108.829C95.6358 109.573 93.8541 109.573 92.3309 108.829C90.8077 108.084 89.7125 106.68 89.3634 105.02L89.3485 105.019ZM116.665 101.796L42.1108 101.797L28.1924 77.6196L32.8685 71.3413V71.3402C33.0768 71.0621 33.189 70.7245 33.189 70.3766V55.078C33.1901 53.3614 33.776 51.6963 34.8495 50.3574C35.923 49.0173 37.421 48.0823 39.0952 47.707V72.6632C39.0975 75.9808 39.9352 79.2448 41.5317 82.1539L47.5856 93.1552V93.1541C47.8694 93.6679 48.4107 93.9872 48.9978 93.9872H72.251C73.1402 93.9872 73.8623 93.2662 73.8623 92.3759V69.7807H102.145C116.308 76.0531 116.813 96.1786 116.666 101.811L116.665 101.796ZM118.894 66.5522L90.2685 66.5533V34.485H118.895L118.894 66.5522Z" fill="#E15F41"/>
</svg>
