<svg width="254" height="176" viewBox="0 0 254 176" fill="none" xmlns="http://www.w3.org/2000/svg">
<path d="M68.9566 144.534H23.1142C21.5462 144.534 20.2733 143.264 20.2733 141.693C20.2733 140.123 21.5462 138.852 23.1142 138.852H68.9594C70.5273 138.852 71.8003 140.123 71.8003 141.693C71.7975 143.264 70.5273 144.534 68.9566 144.534Z" fill="#E15F41"/>
<path d="M70.162 122.324H3.24751C1.67953 122.324 0.406601 121.051 0.406601 119.483C0.406601 117.915 1.67953 116.642 3.24751 116.642H70.162C71.73 116.642 73.0029 117.915 73.0029 119.483C73.0029 121.051 71.73 122.324 70.162 122.324Z" fill="#E15F41"/>
<path d="M41.663 100.114H3.24751C1.67953 100.114 0.406601 98.8409 0.406601 97.2729C0.406601 95.7049 1.67953 94.432 3.24751 94.432H41.663C43.231 94.432 44.5039 95.7049 44.5039 97.2729C44.5039 98.8409 43.2338 100.114 41.663 100.114Z" fill="#E15F41"/>
<path d="M41.663 77.9008H23.1142C21.5462 77.9008 20.2733 76.6278 20.2733 75.0599C20.2733 73.4919 21.5462 72.2189 23.1142 72.2189H41.6658C43.2338 72.2189 44.5067 73.4919 44.5067 75.0599C44.5039 76.6278 43.2338 77.9008 41.663 77.9008Z" fill="#E15F41"/>
<path d="M121.911 172.691C133.892 172.691 143.604 162.978 143.604 150.997C143.604 139.016 133.892 129.304 121.911 129.304C109.93 129.304 100.218 139.016 100.218 150.997C100.218 162.978 109.93 172.691 121.911 172.691Z" fill="#E15F41"/>
<path d="M121.905 161.917C127.939 161.917 132.831 157.026 132.831 150.992C132.831 144.958 127.939 140.066 121.905 140.066C115.872 140.066 110.98 144.958 110.98 150.992C110.98 157.026 115.872 161.917 121.905 161.917Z" fill="#E15F41"/>
<path d="M228.803 172.691C240.784 172.691 250.497 162.978 250.497 150.997C250.497 139.016 240.784 129.304 228.803 129.304C216.823 129.304 207.11 139.016 207.11 150.997C207.11 162.978 216.823 172.691 228.803 172.691Z" fill="#E15F41"/>
<path d="M228.798 161.917C234.832 161.917 239.723 157.026 239.723 150.992C239.723 144.958 234.832 140.066 228.798 140.066C222.764 140.066 217.872 144.958 217.872 150.992C217.872 157.026 222.764 161.917 228.798 161.917Z" fill="#E15F41"/>
<path d="M121.897 175.503C108.386 175.503 97.3937 164.511 97.3937 151C97.3937 137.49 108.386 126.497 121.897 126.497C135.407 126.497 146.4 137.49 146.4 151C146.4 164.511 135.407 175.503 121.897 175.503ZM121.897 132.117C111.486 132.117 103.014 140.589 103.014 151C103.014 161.411 111.486 169.883 121.897 169.883C132.311 169.883 140.78 161.411 140.78 151C140.78 140.589 132.308 132.117 121.897 132.117Z" fill="white"/>
<path d="M121.897 164.735C114.324 164.735 108.162 158.576 108.162 151C108.162 143.424 114.321 137.265 121.897 137.265C129.473 137.265 135.632 143.424 135.632 151C135.632 158.576 129.47 164.735 121.897 164.735ZM121.897 142.885C117.423 142.885 113.782 146.527 113.782 151C113.782 155.474 117.421 159.115 121.897 159.115C126.373 159.115 130.012 155.474 130.012 151C130.012 146.527 126.373 142.885 121.897 142.885Z" fill="white"/>
<path d="M228.803 175.503C215.29 175.503 204.297 164.511 204.297 151C204.297 137.49 215.29 126.497 228.803 126.497C242.314 126.497 253.307 137.49 253.307 151C253.307 164.511 242.314 175.503 228.803 175.503ZM228.803 132.117C218.39 132.117 209.917 140.589 209.917 151C209.917 161.411 218.39 169.883 228.803 169.883C239.214 169.883 247.687 161.411 247.687 151C247.687 140.589 239.214 132.117 228.803 132.117Z" fill="white"/>
<path d="M228.803 164.735C221.23 164.735 215.065 158.576 215.065 151C215.065 143.424 221.228 137.265 228.803 137.265C236.379 137.265 242.539 143.424 242.539 151C242.539 158.576 236.379 164.735 228.803 164.735ZM228.803 142.885C224.327 142.885 220.685 146.527 220.685 151C220.685 155.474 224.327 159.115 228.803 159.115C233.277 159.115 236.919 155.474 236.919 151C236.919 146.527 233.277 142.885 228.803 142.885Z" fill="white"/>
<path d="M70.8084 56.3818H114.771C119.877 56.3818 124.016 60.5209 124.016 65.6267V105.911H70.8084C65.7026 105.911 61.5634 101.772 61.5634 96.6659V65.6267C61.5606 60.5209 65.7026 56.3818 70.8084 56.3818Z" fill="#E15F41"/>
<path d="M126.826 108.721H70.8083C64.1599 108.721 58.7506 103.312 58.7506 96.6659V65.6295C58.7506 58.981 64.1599 53.5718 70.8083 53.5718H114.771C121.419 53.5718 126.826 58.981 126.826 65.6295V108.721ZM70.8083 59.1918C67.2593 59.1918 64.3706 62.0777 64.3706 65.6295V96.6659C64.3706 100.215 67.2565 103.101 70.8083 103.101H121.206V65.6295C121.206 62.0805 118.32 59.1918 114.771 59.1918H70.8083Z" fill="white"/>
<path d="M217.718 67.3548H219.23C221.073 67.3548 222.565 68.8469 222.565 70.6903V86.3223C222.565 88.1657 221.073 89.6578 219.23 89.6578H217.718C211.558 89.6578 206.568 84.6644 206.568 78.5077C206.565 72.3454 211.558 67.3548 217.718 67.3548Z" fill="#E15F41"/>
<path d="M92.0857 148.494H208.206C208.206 137.602 221.933 125.221 231.479 125.221L199.293 68.7767H186.243L197.674 122.774C198.188 125.207 197.57 127.739 195.991 129.661C194.437 131.552 192.119 132.648 189.671 132.648H154.822C150.697 132.648 147.356 129.304 147.356 125.182V118.042C147.356 111.343 141.924 105.911 135.225 105.911H117.645C105.739 105.911 95.0895 113.312 90.9364 124.471L85.5159 139.038C83.8102 143.618 87.1991 148.494 92.0857 148.494Z" fill="#E15F41"/>
<path d="M219.23 92.465H217.718C210.019 92.465 203.755 86.2015 203.755 78.5049C203.755 70.8083 210.019 64.5448 217.718 64.5448H219.23C222.619 64.5448 225.378 67.3014 225.378 70.6903V86.3223C225.378 89.7084 222.619 92.465 219.23 92.465ZM217.718 70.162C213.118 70.162 209.375 73.9049 209.375 78.5021C209.375 83.0993 213.118 86.8422 217.718 86.8422H219.23C219.522 86.8422 219.758 86.6061 219.758 86.3167V70.6875C219.758 70.3981 219.522 70.162 219.23 70.162H217.718Z" fill="white"/>
<path d="M211.013 151.301H92.0828C88.8682 151.301 85.8531 149.724 84.0181 147.086C82.1832 144.447 81.7589 141.07 82.8801 138.057L88.3006 123.487C92.8387 111.292 104.629 103.098 117.643 103.098H135.222C143.461 103.098 150.163 109.803 150.163 118.039V125.176C150.163 127.745 152.251 129.832 154.819 129.832H189.666C191.279 129.832 192.79 129.119 193.816 127.874C194.859 126.606 195.263 124.957 194.923 123.35L182.776 65.9667H200.925L236.315 128.031H231.476C223.58 128.031 211.013 139.204 211.013 148.491V151.301ZM117.645 108.721C106.967 108.721 97.2926 115.445 93.5693 125.449L88.1488 140.019C87.6627 141.328 87.8397 142.733 88.6378 143.88C89.433 145.023 90.6891 145.684 92.0857 145.684H205.641C207.355 135.643 217.794 125.713 227.025 123.083L197.66 71.5867H189.708L200.422 122.192C201.116 125.482 200.29 128.854 198.158 131.448C196.064 133.994 192.967 135.458 189.669 135.458H154.822C149.154 135.458 144.546 130.847 144.546 125.182V118.044C144.546 112.905 140.364 108.724 135.225 108.724L117.645 108.721Z" fill="white"/>
<path d="M250.078 139.437C248.01 132.957 243.241 127.379 236.48 124.53C224.206 119.357 210.064 125.114 204.893 137.386C202.339 143.45 202.46 149.966 204.708 155.637C214.47 140.918 232.948 134.14 250.078 139.437Z" fill="#E15F41"/>
<path d="M204.708 158.447C204.612 158.447 204.514 158.441 204.415 158.43C203.376 158.323 202.482 157.646 202.094 156.673C199.473 150.07 199.548 142.831 202.302 136.295C208.071 122.613 223.892 116.184 237.573 121.942C244.823 124.999 250.356 131.063 252.753 138.586C253.068 139.58 252.809 140.673 252.07 141.418C251.334 142.163 250.249 142.432 249.243 142.123C233.521 137.256 216.161 143.452 207.046 157.191C206.529 157.98 205.643 158.447 204.708 158.447ZM227.117 125.438C224.397 125.438 221.677 125.966 219.086 127.02C213.815 129.164 209.695 133.232 207.487 138.479C206.014 141.972 205.508 145.715 205.975 149.39C215.723 138.392 230.627 133.072 245.135 135.399C242.834 131.735 239.456 128.829 235.393 127.121C232.729 126 229.925 125.438 227.117 125.438Z" fill="white"/>
<path d="M186.884 24.5866C186.884 36.4982 177.229 46.1534 165.317 46.1534C153.405 46.1534 141.578 30.0577 141.578 18.1461C141.578 6.23452 153.408 3.01988 165.317 3.01988C177.226 3.01988 186.884 12.6779 186.884 24.5866Z" fill="#E15F41"/>
<path d="M169.212 45.7965C178.15 44.1639 185.167 37.0265 186.608 28.0233L170.324 24.1146C166.747 23.2547 163.578 26.5845 164.615 30.1167L169.212 45.7965Z" fill="#E15F41"/>
<path d="M156.738 64.7556C156.738 72.8484 163.299 79.4097 171.392 79.4097H183.945C187.145 79.4097 189.742 76.8161 189.742 73.6127V63.359H180.241C177.659 63.359 175.388 61.7208 174.511 59.2929C172.114 52.6473 164.536 44.8664 155.072 44.8664C137.914 44.8945 124.019 58.8124 124.019 75.9703V88.0954H145.127C148.555 88.0954 151.801 88.8851 154.687 90.2929C154.6 85.8193 157.427 81.3514 163.159 76.8779" fill="#E15F41"/>
<path d="M124.016 105.911H135.225C141.924 105.911 147.356 111.343 147.356 118.042V125.182C147.356 129.307 150.699 132.648 154.822 132.648H166.967V109.938C166.967 97.8742 157.188 88.0954 145.124 88.0954H124.016V105.911Z" fill="#E15F41"/>
<path d="M195.522 63.359H189.739V73.0282C193.091 73.2277 196.165 73.8431 198.829 75.0739C199.962 75.5966 201.254 74.8098 201.254 73.5649V69.0886C201.251 65.9245 198.686 63.359 195.522 63.359Z" fill="#F6B77D"/>
<path d="M165.317 48.9634C151.644 48.9634 138.768 31.6004 138.768 18.1461C138.768 11.4471 142.219 0.209885 165.317 0.209885C178.757 0.209885 189.694 11.1464 189.694 24.5866C189.691 38.0297 178.757 48.9634 165.317 48.9634ZM165.317 5.82988C151.43 5.82988 144.388 9.97463 144.388 18.1461C144.388 28.5544 155.215 43.3434 165.317 43.3434C175.661 43.3434 184.074 34.9274 184.074 24.5866C184.074 14.2458 175.658 5.82988 165.317 5.82988Z" fill="white"/>
<path d="M167.225 49.014L161.914 30.9035C161.144 28.2734 161.813 25.5167 163.704 23.5301C165.595 21.5434 168.315 20.7397 170.979 21.3804L189.792 25.8933L189.382 28.4644C187.755 38.6338 179.85 46.7098 169.715 48.5587L167.225 49.014ZM169.184 26.7869C168.456 26.7869 167.973 27.1999 167.776 27.4051C167.54 27.6523 167.02 28.338 167.312 29.3243L171.148 42.4133C176.934 40.5278 181.463 35.9166 183.248 30.1055L169.67 26.8459C169.496 26.8065 169.333 26.7869 169.184 26.7869Z" fill="white"/>
<path d="M199.568 78.0525C198.916 78.0525 198.262 77.912 197.643 77.6254C195.457 76.6138 192.813 76.0265 189.573 75.8354C188.089 75.7483 186.929 74.5175 186.929 73.031V63.3618C186.929 61.8107 188.185 60.5518 189.739 60.5518H195.522C200.234 60.5518 204.064 64.3818 204.064 69.0914V73.5677C204.064 75.1048 203.294 76.5154 202.002 77.3416C201.26 77.8137 200.417 78.0525 199.568 78.0525ZM192.549 70.4711C194.715 70.7521 196.665 71.2186 198.444 71.8761V69.0886C198.444 67.4785 197.132 66.169 195.522 66.169H192.549V70.4711Z" fill="white"/>
<path d="M154.681 93.1057C154.263 93.1057 153.838 93.0101 153.45 92.819C150.846 91.5461 148.047 90.9026 145.124 90.9026H124.016C122.465 90.9026 121.206 89.6438 121.206 88.0926V75.9703C121.206 57.3007 136.394 42.0873 155.061 42.0592C165.595 42.0592 174.303 50.4471 177.15 58.3403C177.628 59.6639 178.867 60.5518 180.238 60.5518H189.739C191.293 60.5518 192.549 61.8107 192.549 63.3618V73.6155C192.549 78.3588 188.688 82.2225 183.942 82.2225H171.389C168.52 82.2225 165.812 81.5257 163.42 80.2949C159.422 83.7484 157.429 87.0866 157.491 90.2451C157.511 91.223 157.016 92.1418 156.193 92.6673C155.732 92.9567 155.21 93.1029 154.681 93.1057ZM126.826 85.2854H145.124C147.628 85.2854 150.064 85.6507 152.405 86.3757C153.335 83.1442 155.482 79.9633 158.823 76.8695C155.794 73.7251 153.928 69.4539 153.928 64.7556C153.928 63.2045 155.184 61.9456 156.738 61.9456C158.292 61.9456 159.548 63.2045 159.548 64.7556C159.548 71.286 164.862 76.5997 171.392 76.5997H183.945C185.591 76.5997 186.932 75.2594 186.932 73.6127V66.169H180.241C176.509 66.169 173.146 63.7889 171.87 60.2455C169.984 55.0302 163.527 47.6792 155.069 47.6792C139.499 47.7045 126.829 60.3945 126.829 75.9703V85.2854H126.826Z" fill="white"/>
<path d="M166.964 135.458H154.822C149.154 135.458 144.546 130.847 144.546 125.182V118.044C144.546 112.905 140.364 108.724 135.225 108.724H124.016C122.465 108.724 121.206 107.468 121.206 105.914V88.0982C121.206 86.5471 122.465 85.2882 124.016 85.2882H145.124C158.716 85.2882 169.774 96.3484 169.774 109.938V132.648C169.774 134.199 168.518 135.458 166.964 135.458ZM126.826 103.101H135.225C143.464 103.101 150.166 109.806 150.166 118.042V125.179C150.166 127.747 152.253 129.835 154.822 129.835H164.154V109.935C164.154 99.4422 155.617 90.9054 145.124 90.9054H126.826V103.101Z" fill="white"/>
</svg>
